<?xml version="1.0" encoding="utf-8"?>
<!-- Generated by Mocodo 4.2.10 -->
<svg width="168" height="263" viewBox="0 0 168 263" xmlns="http://www.w3.org/2000/svg">
<rect x="0" y="0" width="168" height="263" fill="#f5f5f5" stroke="none" stroke-width="0"/>

<!-- Association HAS -->
<g>
	<line x1="48" y1="43" x2="139" y2="178" stroke="#35978f" stroke-width="2"/>
	<line x1="48" y1="178" x2="139" y2="178" stroke="#35978f" stroke-width="2"/>
	<g>
		<path d="M145 153 a14 14 90 0 1 14 14 V178 h-40 V167 a14 14 90 0 1 14 -14" fill="#80cdc1" stroke="#80cdc1" stroke-width="0"/>
		<path d="M159 178 v11 a14 14 90 0 1 -14 14 H133 a14 14 90 0 1 -14 -14 V178 H40" fill="#c7eae5" stroke="#c7eae5" stroke-width="0"/>
		<rect x="119" y="153" width="40" height="50" fill="none" rx="14" stroke="#35978f" stroke-width="2"/>
		<line x1="119" y1="178" x2="159" y2="178" stroke="#35978f" stroke-width="1"/>
		<text x="126" y="170.75" fill="#000000" font-family="Verdana" font-size="12">HAS</text>
	</g>
	<text x="49.08" y="94" fill="#8c510a" font-family="Verdana" font-size="12">0,N</text>
	<text x="92" y="195" fill="#8c510a" font-family="Verdana" font-size="12">1,1</text>
</g>

<!-- Entity CATEGORY -->
<g>
	<g>
		<rect x="9" y="9" width="78" height="25" fill="#dfc27d" stroke="none" stroke-width="0" opacity="1"/>
		<rect x="9" y="34" width="78" height="43" fill="#f6e8c3" stroke="none" stroke-width="0" opacity="1"/>
		<rect x="9" y="9" width="78" height="68" fill="none" stroke="#bf812d" stroke-width="2" opacity="1"/>
		<line x1="9" y1="34" x2="87" y2="34" stroke="#bf812d" stroke-width="1"/>
	</g>
	<text x="15" y="26.75" fill="#000000" font-family="Verdana" font-size="12">CATEGORY</text>
	<text x="14" y="51.8" fill="#000000" font-family="Verdana" font-size="12">name</text>
	<line x1="14" y1="54" x2="49" y2="54" stroke="#000000" stroke-width="1"/>
	<text x="14" y="68.8" fill="#000000" font-family="Verdana" font-size="12">createdAt</text>
</g>

<!-- Entity AD -->
<g>
	<g>
		<rect x="9" y="102" width="78" height="25" fill="#dfc27d" stroke="none" stroke-width="0" opacity="1"/>
		<rect x="9" y="127" width="78" height="127" fill="#f6e8c3" stroke="none" stroke-width="0" opacity="1"/>
		<rect x="9" y="102" width="78" height="152" fill="none" stroke="#bf812d" stroke-width="2" opacity="1"/>
		<line x1="9" y1="127" x2="87" y2="127" stroke="#bf812d" stroke-width="1"/>
	</g>
	<text x="39" y="119.75" fill="#000000" font-family="Verdana" font-size="12">AD</text>
	<text x="14" y="144.8" fill="#000000" font-family="Verdana" font-size="12">title</text>
	<line x1="14" y1="147" x2="38" y2="147" stroke="#000000" stroke-width="1"/>
	<text x="14" y="161.8" fill="#000000" font-family="Verdana" font-size="12">description</text>
	<text x="14" y="178.8" fill="#000000" font-family="Verdana" font-size="12">owner</text>
	<text x="14" y="195.8" fill="#000000" font-family="Verdana" font-size="12">price</text>
	<text x="14" y="212.8" fill="#000000" font-family="Verdana" font-size="12">picture</text>
	<text x="14" y="229.8" fill="#000000" font-family="Verdana" font-size="12">location</text>
	<text x="14" y="246.8" fill="#000000" font-family="Verdana" font-size="12">createdAt</text>
</g>
</svg>